# xmcd
#
# Track frame offsets: 
#        150
#        21644
#        39877
#        66233
#        100985
#        122920
#        149841
#        168136
#        207720
#
# Disc length: 2901 seconds
#
# Revision: 2
# Processed by: cddbd v1.5.2PL0 Copyright (c) Steve Scherf et al.
# Submitted via: ExactAudioCopy v0.99pb5
#
DISCID=8b0b5309
DTITLE=One Man Army And The Undead Quartet - The Dark Epic...
DYEAR=2011
DGENRE=Melodic Death Metal
TTITLE0=Stitch
TTITLE1=The Zombie Syndrome (Of Acid and Man)
TTITLE2=Inside The Head Of God
TTITLE3=Sandman Apocalypse
TTITLE4=The Pleasure Of Slavery
TTITLE5=Skeletons Of Rose Hall
TTITLE6=Devil's Harlot
TTITLE7=Dark Epic
TTITLE8=How I Love To Kill You
EXTD=YEAR: 2011
EXTT0=
EXTT1=
EXTT2=
EXTT3=
EXTT4=
EXTT5=
EXTT6=
EXTT7=
EXTT8=
PLAYORDER=
